<svg xmlns="http://www.w3.org/2000/svg" viewBox="0 0 234.36 32.11"><title>contact-sprite</title><circle cx="16.05" cy="16.06" r="16.05" style="fill:#7fc2bc"/><path d="M19.52,16.06L26,21.6l-0.59.59L18.88,16.6l-2.72,2.33-2.69-2.3L7,22.19l-0.62-.62,6.43-5.52L6.34,10.51l0.59-.59,9.21,7.89L18.21,16h0l7.12-6.1L26,10.54Zm8,6.14V9.92A0.88,0.88,0,0,0,26.68,9h0l-0.16,0H5.62a0.86,0.86,0,0,0-.86.86h0V22.19a0.88,0.88,0,0,0,.88.88h21a0.88,0.88,0,0,0,.88-0.88" transform="translate(0 0)" style="fill:#fff"/><path d="M114.79,24.79h3.61V16.05h2.41l0.32-3H118.4V11.54c0-.78.07-1.21,1.2-1.21h1.5v-3H118.7c-2.89,0-3.91,1.46-3.91,3.92V13H113v3h1.8v8.73Zm2.27,7.32a16.05,16.05,0,1,1,16.05-16.05A16.06,16.06,0,0,1,117.06,32.11Z" transform="translate(0 0)" style="fill:#7fc2bc"/><path d="M84.37,22.68c-2.58.14-3.79-.45-4.89-1.5s-0.74-2.53.27-2.6,1.61,1.16,2.15,1.5,2.58,1.12,3.65-.14-0.78-2.07-2.21-2.29c-2-.31-4.62-1.44-4.42-3.66a3.78,3.78,0,0,1,3.59-3.52,5.93,5.93,0,0,1,4.79,1.33c1.32,1.15.6,2.43-.23,2.53s-1.77-1.88-3.62-1.91-3.18,2-.84,2.6,4.86,0.82,5.76,3S87,22.54,84.37,22.68Zm7.27-5.2a8.36,8.36,0,0,0,.08-1.11,8.15,8.15,0,0,0-8.11-8.18,8,8,0,0,0-1.31.11,4.77,4.77,0,0,0-2.64-.8,4.87,4.87,0,0,0-4.84,4.91,4.94,4.94,0,0,0,.78,2.67,8.27,8.27,0,0,0-.1,1.29,8.1,8.1,0,0,0,9.58,8,4.79,4.79,0,0,0,2.56.74,4.87,4.87,0,0,0,4.84-4.91A4.93,4.93,0,0,0,91.65,17.48ZM83.39,32.11A16.05,16.05,0,1,1,99.44,16.05,16.06,16.06,0,0,1,83.39,32.11Z" transform="translate(0 0)" style="fill:#7fc2bc"/><circle cx="49.72" cy="16.06" r="16.06" style="fill:#7fc2bc"/><path d="M50.25,19.89l-1.84,1.79a1,1,0,0,1-.76.31,0.38,0.38,0,0,1-.39-0.3c-0.47-1.44-.94-2.88-1.4-4.33a0.34,0.34,0,0,0-.25-0.25l-3.28-1a1.87,1.87,0,0,1-.48-0.22,0.34,0.34,0,0,1-.06-0.58,2.22,2.22,0,0,1,.64-0.4c1.34-.53,2.69-1,4-1.56l10.24-4a0.73,0.73,0,0,1,1.08.8,12.09,12.09,0,0,1-.25,1.33Q56.41,16.76,55.3,22a0.82,0.82,0,0,1-1.44.54L50.42,20ZM47.68,21h0a0.8,0.8,0,0,0,0-.1c0.07-.79.15-1.59,0.22-2.38A0.58,0.58,0,0,1,48.16,18l3.16-2.84,3.49-3.15A1,1,0,0,0,55,11.79a1,1,0,0,0-.33,0,1.42,1.42,0,0,0-.38.19l-7.7,4.85a0.23,0.23,0,0,0-.12.33c0.19,0.54.36,1.09,0.54,1.64Z" transform="translate(0 0)" style="fill:#fff"/><path d="M184.51,0a16.26,16.26,0,0,0-16.05,16.46,16.43,16.43,0,0,0,11,15.62,0.81,0.81,0,0,0,1.1-.79c0-.39,0-1.69,0-3.06-4.46,1-5.41-1.94-5.41-1.94a4.34,4.34,0,0,0-1.78-2.41c-1.46-1,.11-1,0.11-1a3.38,3.38,0,0,1,2.46,1.7,3.37,3.37,0,0,0,4.67,1.37,3.55,3.55,0,0,1,1-2.2c-3.56-.42-7.31-1.83-7.31-8.14a6.46,6.46,0,0,1,1.65-4.42,6.07,6.07,0,0,1,.16-4.36s1.35-.44,4.42,1.69a14.84,14.84,0,0,1,8,0c3.06-2.13,4.41-1.69,4.41-1.69a6,6,0,0,1,.16,4.36,6.44,6.44,0,0,1,1.65,4.42c0,6.32-3.76,7.72-7.33,8.12a4,4,0,0,1,1.09,3c0,2.2,0,4,0,4.52a0.81,0.81,0,0,0,1.11.79,16.44,16.44,0,0,0,11-15.62A16.26,16.26,0,0,0,184.51,0Z" transform="translate(0 0)" style="fill:#7fc2bc"/><circle cx="218.31" cy="16.06" r="16.05" style="fill:#7fc2bc"/><path d="M217.55,15.48c0.65,0.15.58,2.13,0.07,2.5h-4.39v5.89c0,0.37-2.88.29-3,.07h0c0-4.79,0-9.65-.07-14.43a0.69,0.69,0,0,1,.63-0.74h7.07c0.65,0,.58,2.43.07,2.43l-4.75.07v4.2h4.39Zm9.89,8.71h-5.33c-0.94.07-1.08-.22-1.15-0.74V9.09c0.15-.37,2.45-0.59,3-0.07l0.07,12.59h3.46c0.58-.07.5,2.58-0.07,2.58h0Z" transform="translate(0 0)" style="fill:#fff"/><circle cx="150.72" cy="16.06" r="16.05" style="fill:#7fc2bc"/><path d="M143.6,8v5.76a4.25,4.25,0,0,1,5-1.21,2.84,2.84,0,0,1,1.18.91,3.26,3.26,0,0,1,.54,1.23,10.78,10.78,0,0,1,.15,2.08v6.16h-2.82V17.34a8.11,8.11,0,0,0-.16-2.09,1.37,1.37,0,0,0-.57-0.71,1.83,1.83,0,0,0-1-.26,2.35,2.35,0,0,0-1.25.34,1.94,1.94,0,0,0-.81,1,5.86,5.86,0,0,0-.26,2v5.26h-2.81V8h2.82Zm11.1,0v5.76a4.25,4.25,0,0,1,5-1.21,2.84,2.84,0,0,1,1.18.91,3.26,3.26,0,0,1,.54,1.23,10.81,10.81,0,0,1,.15,2.08v6.16h-2.82V17.34a8.05,8.05,0,0,0-.16-2.09,1.37,1.37,0,0,0-.57-0.71,1.82,1.82,0,0,0-1-.26,2.35,2.35,0,0,0-1.25.34,2,2,0,0,0-.81,1,6,6,0,0,0-.25,2v5.26h-2.82V8h2.82Z" transform="translate(0 0)" style="fill:#fff"/></svg>