<svg width="405" height="28" viewBox="0 0 405 28" fill="none" xmlns="http://www.w3.org/2000/svg">
<path fill-rule="evenodd" clip-rule="evenodd" d="M28 14C28 21.732 21.7319 28 14 28C6.26807 28 0 21.732 0 14C0 6.26801 6.26807 0 14 0C21.7319 0 28 6.26801 28 14ZM13.5625 15.1345C14 14.7845 14 13.0345 13.4751 12.947L9.625 13.0345V9.35953L13.8252 9.27203C14.2627 9.27203 14.2627 7.17203 13.7373 7.17203H7.5249C7.2627 7.17203 7 7.43454 7 7.78452C7.0874 11.9845 7.0874 16.1845 7.0874 20.3845C7.1748 20.5595 9.7124 20.647 9.7124 20.297V15.1345H13.5625ZM17.4126 20.5595H22.0498C22.5752 20.5595 22.6626 18.197 22.2251 18.2845H19.1626L19.0752 7.25952C18.5498 6.82202 16.5376 6.99704 16.4502 7.34702V19.947C16.4502 20.3845 16.625 20.647 17.4126 20.5595Z" transform="translate(377)" fill="#9D8BFF"/>
<path d="M14.0423 0C6.19306 0.0870197 -0.0863213 6.52647 0.000892254 14.3582C0.000892254 20.4496 3.83829 25.9319 9.59438 27.9333C9.94324 28.1073 10.3793 27.9333 10.4665 27.4982C10.4665 27.4112 10.5537 27.3242 10.5537 27.2372C10.5537 26.8891 10.5537 25.7578 10.5537 24.5395C6.62913 25.4097 5.84421 22.8862 5.84421 22.8862C5.58257 22.016 5.05929 21.3198 4.27436 20.7977C2.96616 19.9275 4.36157 19.9275 4.36157 19.9275C5.23371 20.1015 6.01863 20.6237 6.54191 21.4068C7.32683 22.8862 9.0711 23.4083 10.4665 22.6251C10.4665 22.6251 10.5537 22.6251 10.5537 22.5381C10.641 21.8419 10.9026 21.1458 11.4259 20.6237C8.28619 20.2756 5.05928 19.0573 5.05928 13.5751C5.05928 12.1828 5.58257 10.7904 6.4547 9.7462C6.01864 8.52793 6.10585 7.13561 6.62913 5.91734C6.62913 5.91734 7.85011 5.56926 10.4665 7.39667C12.7341 6.78753 15.1761 6.78753 17.4436 7.39667C20.1472 5.56926 21.281 5.91734 21.281 5.91734C21.8043 7.13561 21.8915 8.44091 21.4554 9.7462C22.4148 10.7904 22.9381 12.1828 22.8509 13.5751C22.8509 19.0573 19.5367 20.2756 16.4843 20.6237C17.182 21.3198 17.5308 22.277 17.4436 23.2342C17.4436 25.1487 17.4436 26.715 17.4436 27.1501C17.4436 27.4982 17.7052 27.8463 18.1413 27.8463C18.2285 27.8463 18.3157 27.8463 18.403 27.7593C24.1591 25.7578 27.9965 20.2756 27.9965 14.1842C28.1709 6.43945 21.8915 0.0870197 14.0423 0Z" transform="translate(348)" fill="#9D8BFF"/>
<path fill-rule="evenodd" clip-rule="evenodd" d="M28 14C28 21.732 21.7319 28 14 28C6.26807 28 0 21.732 0 14C0 6.26801 6.26807 0 14 0C21.7319 0 28 6.26801 28 14ZM7.875 12.075V7H5.25V20.0375H7.7002V15.4C7.7002 14.7875 7.7876 14.175 7.9624 13.65C8.0498 13.3 8.3125 12.95 8.6626 12.775C9.0127 12.6 9.4502 12.5125 9.7998 12.5125C10.1499 12.5125 10.4126 12.6 10.6748 12.775C10.9375 12.95 11.1123 13.125 11.2002 13.3875C11.375 14 11.375 14.6125 11.375 15.225V20.125H13.8252V14.7C13.9126 14.0875 13.8252 13.475 13.7373 12.8625C13.6499 12.5125 13.5625 12.1625 13.2998 11.8125C13.0376 11.4625 12.6875 11.2 12.25 11.025C10.7627 10.325 8.9248 10.7625 7.875 12.075ZM17.5874 12.075V7H14.9624V20.0375H17.4126V15.4C17.4126 14.7875 17.5 14.175 17.6748 13.65C17.7627 13.3 18.0249 12.95 18.375 12.775C18.7251 12.6 19.1626 12.5125 19.5127 12.5125C19.8623 12.5125 20.125 12.6 20.3877 12.775C20.6499 12.95 20.8252 13.125 20.9126 13.3875C21.0874 14 21.0874 14.6125 21.0874 15.225V20.125H23.5376V14.7C23.625 14.0875 23.5376 13.475 23.4502 12.8625C23.3623 12.5125 23.2749 12.1625 23.0127 11.8125C22.75 11.4625 22.3999 11.2 21.9624 11.025C20.4751 10.325 18.6377 10.7625 17.5874 12.075Z" transform="translate(319)" fill="#9D8BFF"/>
<path d="M11.9502 21.6324H15.0903V13.9564H17.1838L17.4455 11.3396H15.0903V10.0312C15.0903 9.33333 15.1776 8.98442 16.1371 8.98442H17.4455V6.3676H15.352C12.8224 6.3676 11.9502 7.67601 11.9502 9.76947V11.3396H10.3801V13.9564H11.9502V21.6324ZM13.9564 28C6.19315 28 -1.33098e-06 21.7196 -1.33098e-06 13.9564C-1.33098e-06 6.19315 6.28037 0 14.0436 0C21.8069 0 28 6.28037 28 13.9564C27.9128 21.7196 21.6324 28 13.9564 28Z" transform="translate(290)" fill="#9D8BFF"/>
<path d="M14.8287 19.8006C12.5608 19.8879 11.514 19.3645 10.5545 18.4922C9.59502 17.6199 9.94393 16.3115 10.8162 16.2243C11.6885 16.1371 12.2118 17.271 12.7352 17.5327C13.2586 17.7944 15.0031 18.4922 15.9626 17.4455C16.9221 16.3988 15.2648 15.6137 14.0436 15.4393C12.2991 15.1776 10.0312 14.2181 10.2056 12.2118C10.2928 10.5545 11.6885 9.24611 13.3458 9.15888C14.8287 8.8972 16.3988 9.33333 17.5327 10.2928C18.6667 11.2523 18.0561 12.3863 17.3583 12.4735C16.6604 12.5607 15.7882 10.8162 14.2181 10.8162C12.648 10.8162 11.4268 12.5607 13.5203 13.0841C15.6137 13.6075 17.7944 13.7819 18.5794 15.7009C19.3645 17.6199 17.0966 19.6262 14.8287 19.8006ZM21.109 15.2648C21.1963 14.9159 21.1963 14.6542 21.1963 14.3053C21.1963 10.3801 18.0561 7.15265 14.1308 7.15265C13.7819 7.15265 13.3458 7.15265 12.9969 7.23988C12.2991 6.80374 11.514 6.54206 10.729 6.54206C8.37383 6.54206 6.45483 8.46106 6.54206 10.8162C6.54206 11.6012 6.80374 12.4735 7.23987 13.1713C7.15265 13.5203 7.15265 13.9564 7.15265 14.3053C7.15265 18.2305 10.2928 21.3707 14.2181 21.3707C14.6542 21.3707 15.0903 21.3707 15.5265 21.2835C16.2243 21.7196 17.0093 21.8941 17.7944 21.8941C20.1495 21.8941 22.0685 19.9751 21.9813 17.6199C21.8941 16.7477 21.6324 15.9626 21.109 15.2648ZM13.9564 28C6.19315 28 1.33098e-06 21.7196 1.33098e-06 13.9564C1.33098e-06 6.19315 6.28037 0 14.0436 0C21.8069 0 28 6.28037 28 13.9564C27.9128 21.7196 21.7196 28 13.9564 28Z" transform="translate(261)" fill="#9D8BFF"/>
<path fill-rule="evenodd" clip-rule="evenodd" d="M28 14C28 21.732 21.7319 28 14 28C6.26807 28 0 21.732 0 14C0 6.26801 6.26807 0 14 0C21.7319 0 28 6.26801 28 14ZM13.0376 18.8125L14.6123 17.2375L14.7002 17.325L17.5874 19.425C17.6748 19.6 17.9375 19.6875 18.1123 19.6875C18.4624 19.6875 18.8125 19.425 18.8125 18.9875C19.1187 17.4562 19.4468 15.925 19.7749 14.3937C20.103 12.8625 20.4312 11.3312 20.7373 9.79999C20.8516 9.57178 20.8916 9.30634 20.9297 9.05219C20.9497 8.91663 20.9697 8.78427 21 8.66251C21 8.57501 21 8.39999 20.9126 8.22501C20.7373 7.875 20.2998 7.78751 20.0376 7.96249L11.1123 11.4625C10.2197 11.8746 9.27246 12.2328 8.35645 12.5795C8.10547 12.6744 7.85693 12.7684 7.6123 12.8625C7.4375 12.95 7.2627 13.0375 7.0874 13.2125C7.0874 13.2125 7 13.2125 7 13.3C7 13.475 7 13.65 7.1748 13.7375C7.26221 13.7812 7.32812 13.8031 7.39355 13.8249C7.45898 13.8468 7.5249 13.8687 7.6123 13.9125L10.5 14.7875C10.6748 14.875 10.7627 14.9625 10.7627 15.05C10.9814 15.6625 11.1782 16.2969 11.375 16.9312C11.5718 17.5656 11.7686 18.2 11.9873 18.8125C11.9873 18.9875 12.1626 19.075 12.3374 19.075C12.6001 19.075 12.8623 18.9875 13.0376 18.8125ZM12.3374 18.1125V18.2L11.8125 16.275C11.7251 15.8375 11.5498 15.3125 11.375 14.875C11.2876 14.7875 11.375 14.6125 11.4624 14.6125L18.2002 10.4125C18.2876 10.325 18.4624 10.2375 18.5498 10.2375H18.8125L18.6377 10.4125L15.5752 13.125L12.7749 15.575C12.6001 15.6625 12.5127 15.8375 12.5127 16.0125C12.5127 16.7086 12.4258 17.4048 12.3389 18.101L12.3374 18.1125Z" transform="translate(232)" fill="#9D8BFF"/>
<path fill-rule="evenodd" clip-rule="evenodd" d="M28 14C28 21.732 21.7319 28 14 28C6.26807 28 0 21.732 0 14C0 6.26801 6.26807 0 14 0C21.7319 0 28 6.26801 28 14ZM22.75 18.8124L17.0625 13.9999L22.75 9.18741L22.1377 8.66241L15.9253 13.9999L14.0879 15.5749L6.0376 8.66241L5.5127 9.18741L11.2002 13.9999L5.6001 18.8124L6.125 19.3374L11.8125 14.4374L14.1753 16.4499L16.5376 14.4374L22.2251 19.3374L22.75 18.8124ZM24.0625 8.57492V19.3374C24.0625 19.7749 23.7129 20.1249 23.3628 20.1249H4.98779C4.55029 20.1249 4.2002 19.7749 4.2002 19.3374V8.57492C4.2002 8.13742 4.46289 7.78741 4.90039 7.78741H23.1875H23.3628C23.7129 7.78741 24.0625 8.13742 24.0625 8.57492Z" transform="translate(203)" fill="#9D8BFF"/>
<path fill-rule="evenodd" clip-rule="evenodd" d="M28 14C28 21.7319 21.7319 28 14 28C6.26807 28 0 21.7319 0 14C0 6.26807 6.26807 0 14 0C21.7319 0 28 6.26807 28 14ZM13.5625 15.1348C14 14.7847 14 13.0347 13.475 12.9473L9.625 13.0347V9.35938L13.825 9.27197C14.2625 9.27197 14.2625 7.17188 13.7375 7.17188H7.52502C7.26245 7.17188 7 7.43457 7 7.78467C7.08752 11.9844 7.08752 16.1846 7.08752 20.3848C7.17505 20.5596 9.71252 20.647 9.71252 20.2969V15.1348H13.5625ZM17.4125 20.5596H22.05C22.575 20.5596 22.6625 18.1973 22.225 18.2847H19.1625L19.075 7.25977C18.55 6.82227 16.5375 6.99707 16.45 7.34717V19.9473C16.45 20.3848 16.625 20.647 17.4125 20.5596Z" transform="translate(174)" fill="#7FC2BC"/>
<path d="M14.0423 0C6.19306 0.0870197 -0.0863213 6.52647 0.000892254 14.3582C0.000892254 20.4496 3.83829 25.9319 9.59438 27.9333C9.94324 28.1073 10.3793 27.9333 10.4665 27.4982C10.4665 27.4112 10.5537 27.3242 10.5537 27.2372C10.5537 26.8891 10.5537 25.7578 10.5537 24.5395C6.62913 25.4097 5.84421 22.8862 5.84421 22.8862C5.58257 22.016 5.05929 21.3198 4.27436 20.7977C2.96616 19.9275 4.36157 19.9275 4.36157 19.9275C5.23371 20.1015 6.01863 20.6237 6.54191 21.4068C7.32683 22.8862 9.0711 23.4083 10.4665 22.6251C10.4665 22.6251 10.5537 22.6251 10.5537 22.5381C10.641 21.8419 10.9026 21.1458 11.4259 20.6237C8.28619 20.2756 5.05928 19.0573 5.05928 13.5751C5.05928 12.1828 5.58257 10.7904 6.4547 9.7462C6.01864 8.52793 6.10585 7.13561 6.62913 5.91734C6.62913 5.91734 7.85011 5.56926 10.4665 7.39667C12.7341 6.78753 15.1761 6.78753 17.4436 7.39667C20.1472 5.56926 21.281 5.91734 21.281 5.91734C21.8043 7.13561 21.8915 8.44091 21.4554 9.7462C22.4148 10.7904 22.9381 12.1828 22.8509 13.5751C22.8509 19.0573 19.5367 20.2756 16.4843 20.6237C17.182 21.3198 17.5308 22.277 17.4436 23.2342C17.4436 25.1487 17.4436 26.715 17.4436 27.1501C17.4436 27.4982 17.7052 27.8463 18.1413 27.8463C18.2285 27.8463 18.3157 27.8463 18.403 27.7593C24.1591 25.7578 27.9965 20.2756 27.9965 14.1842C28.1709 6.43945 21.8915 0.0870197 14.0423 0Z" transform="translate(145)" fill="#7FC2BC"/>
<path fill-rule="evenodd" clip-rule="evenodd" d="M28 14C28 21.7319 21.7319 28 14 28C6.26807 28 0 21.7319 0 14C0 6.26807 6.26807 0 14 0C21.7319 0 28 6.26807 28 14ZM7.875 12.0752V7H5.25V20.0376H7.69995V15.3999C7.69995 14.7876 7.78748 14.1748 7.96252 13.6499C8.05005 13.2998 8.3125 12.9502 8.66248 12.7749C9.01245 12.6001 9.44995 12.5127 9.80005 12.5127C10.15 12.5127 10.4125 12.6001 10.675 12.7749C10.9375 12.9502 11.1125 13.125 11.2 13.3877C11.375 14 11.375 14.6123 11.375 15.2251V20.125H13.825V14.7002C13.9125 14.0874 13.825 13.4751 13.7375 12.8623C13.65 12.5127 13.5625 12.1626 13.3 11.8125C13.0375 11.4624 12.6875 11.2002 12.25 11.0249C10.7625 10.3252 8.92505 10.7627 7.875 12.0752ZM17.5875 12.0752V7H14.9625V20.0376H17.4125V15.3999C17.4125 14.7876 17.5 14.1748 17.675 13.6499C17.7625 13.2998 18.025 12.9502 18.375 12.7749C18.725 12.6001 19.1625 12.5127 19.5125 12.5127C19.8625 12.5127 20.125 12.6001 20.3875 12.7749C20.65 12.9502 20.825 13.125 20.9125 13.3877C21.0875 14 21.0875 14.6123 21.0875 15.2251V20.125H23.5375V14.7002C23.625 14.0874 23.5375 13.4751 23.45 12.8623C23.3625 12.5127 23.275 12.1626 23.0125 11.8125C22.75 11.4624 22.4 11.2002 21.9625 11.0249C20.475 10.3252 18.6375 10.7627 17.5875 12.0752Z" transform="translate(116)" fill="#7FC2BC"/>
<path d="M11.9502 21.6324H15.0903V13.9564H17.1838L17.4455 11.3396H15.0903V10.0312C15.0903 9.33333 15.1776 8.98442 16.1371 8.98442H17.4455V6.3676H15.352C12.8224 6.3676 11.9502 7.67601 11.9502 9.76947V11.3396H10.3801V13.9564H11.9502V21.6324ZM13.9564 28C6.19315 28 -1.33098e-06 21.7196 -1.33098e-06 13.9564C-1.33098e-06 6.19315 6.28037 0 14.0436 0C21.8069 0 28 6.28037 28 13.9564C27.9128 21.7196 21.6324 28 13.9564 28Z" transform="translate(87)" fill="#7FC2BC"/>
<path fill-rule="evenodd" clip-rule="evenodd" d="M28 14C28 21.7319 21.7319 28 14 28C6.26807 28 0 21.7319 0 14C0 6.26807 6.26807 0 14 0C21.7319 0 28 6.26807 28 14ZM13.0375 18.8125L14.6125 17.2373L14.7 17.3252L17.5875 19.4248C17.675 19.6001 17.9375 19.6875 18.1125 19.6875C18.4625 19.6875 18.8125 19.4248 18.8125 18.9873C19.1188 17.4561 19.4469 15.9248 19.775 14.3936C20.1031 12.8623 20.4313 11.3311 20.7375 9.7998C20.8516 9.57227 20.8912 9.30713 20.9293 9.05322C20.9496 8.91748 20.9695 8.78467 21 8.6626C21 8.5752 21 8.3999 20.9125 8.2251C20.7375 7.875 20.3 7.7876 20.0375 7.9624L11.1125 11.4624C10.2202 11.874 9.27417 12.2319 8.35876 12.5786C8.10706 12.6738 7.85779 12.7681 7.61255 12.8623C7.4375 12.9502 7.26245 13.0376 7.08752 13.2124C7.08752 13.2124 7 13.2124 7 13.2998C7 13.4751 7 13.6499 7.17505 13.7373C7.26294 13.7812 7.32874 13.8032 7.39465 13.8252C7.45996 13.8472 7.52539 13.8691 7.61255 13.9126L10.5 14.7876C10.675 14.875 10.7625 14.9624 10.7625 15.0498C10.9812 15.6621 11.1781 16.2969 11.375 16.9312C11.5719 17.5654 11.7688 18.2002 11.9875 18.8125C11.9875 18.9873 12.1625 19.0752 12.3375 19.0752C12.6 19.0752 12.8625 18.9873 13.0375 18.8125ZM12.3375 18.1123V18.2002L11.8125 16.2749C11.725 15.8374 11.55 15.3125 11.375 14.875C11.2875 14.7876 11.375 14.6123 11.4625 14.6123L18.2 10.4126C18.2875 10.3252 18.4625 10.2373 18.55 10.2373H18.8125L18.6375 10.4126L15.575 13.125L12.775 15.5752C12.6 15.6626 12.5125 15.8374 12.5125 16.0127C12.5125 16.7124 12.425 17.4126 12.3375 18.1123Z" transform="translate(29)" fill="#7FC2BC"/>
<path d="M14.8287 19.8006C12.5608 19.8879 11.514 19.3645 10.5545 18.4922C9.59502 17.6199 9.94393 16.3115 10.8162 16.2243C11.6885 16.1371 12.2118 17.271 12.7352 17.5327C13.2586 17.7944 15.0031 18.4922 15.9626 17.4455C16.9221 16.3988 15.2648 15.6137 14.0436 15.4393C12.2991 15.1776 10.0312 14.2181 10.2056 12.2118C10.2928 10.5545 11.6885 9.24611 13.3458 9.15888C14.8287 8.8972 16.3988 9.33333 17.5327 10.2928C18.6667 11.2523 18.0561 12.3863 17.3583 12.4735C16.6604 12.5607 15.7882 10.8162 14.2181 10.8162C12.648 10.8162 11.4268 12.5607 13.5203 13.0841C15.6137 13.6075 17.7944 13.7819 18.5794 15.7009C19.3645 17.6199 17.0966 19.6262 14.8287 19.8006ZM21.109 15.2648C21.1963 14.9159 21.1963 14.6542 21.1963 14.3053C21.1963 10.3801 18.0561 7.15265 14.1308 7.15265C13.7819 7.15265 13.3458 7.15265 12.9969 7.23988C12.2991 6.80374 11.514 6.54206 10.729 6.54206C8.37383 6.54206 6.45483 8.46106 6.54206 10.8162C6.54206 11.6012 6.80374 12.4735 7.23987 13.1713C7.15265 13.5203 7.15265 13.9564 7.15265 14.3053C7.15265 18.2305 10.2928 21.3707 14.2181 21.3707C14.6542 21.3707 15.0903 21.3707 15.5265 21.2835C16.2243 21.7196 17.0093 21.8941 17.7944 21.8941C20.1495 21.8941 22.0685 19.9751 21.9813 17.6199C21.8941 16.7477 21.6324 15.9626 21.109 15.2648ZM13.9564 28C6.19315 28 1.33098e-06 21.7196 1.33098e-06 13.9564C1.33098e-06 6.19315 6.28038 0 14.0436 0C21.8069 0 28 6.28037 28 13.9564C27.9128 21.7196 21.7196 28 13.9564 28Z" transform="translate(58)" fill="#7FC2BC"/>
<path fill-rule="evenodd" clip-rule="evenodd" d="M28 14C28 21.7319 21.7319 28 14 28C6.26807 28 0 21.7319 0 14C0 6.26807 6.26807 0 14 0C21.7319 0 28 6.26807 28 14ZM22.7501 18.8125L17.0626 14L22.7501 9.1875L22.1376 8.6626L15.925 14L14.0875 15.5752L6.0376 8.6626L5.51257 9.1875L11.2001 14L5.6001 18.8125L6.12512 19.3374L11.8126 14.4375L14.175 16.4502L16.5376 14.4375L22.2251 19.3374L22.7501 18.8125ZM24.0626 8.5752V19.3374C24.0626 19.7749 23.7125 20.125 23.3625 20.125H4.98755C4.55005 20.125 4.20007 19.7749 4.20007 19.3374V8.5752C4.20007 8.1377 4.46252 7.7876 4.90002 7.7876H23.1876H23.3625C23.7125 7.7876 24.0626 8.1377 24.0626 8.5752Z" fill="#7FC2BC"/>
</svg>
