<svg width="535" height="28" viewBox="0 0 535 28" fill="none" xmlns="http://www.w3.org/2000/svg">
<g clip-path="url(#clip0)">
<path d="M535 14C535 16.7689 534.179 19.4757 532.641 21.778C531.102 24.0803 528.916 25.8747 526.358 26.9343C523.799 27.9939 520.984 28.2712 518.269 27.731C515.553 27.1908 513.058 25.8574 511.101 23.8995C509.143 21.9416 507.809 19.447 507.269 16.7313C506.729 14.0155 507.006 11.2006 508.066 8.64243C509.125 6.08427 510.92 3.89777 513.222 2.35943C515.524 0.821086 518.231 0 521 0C524.713 0 528.274 1.475 530.9 4.1005C533.525 6.72601 535 10.287 535 14V14ZM520.55 15.13C520.99 14.78 520.99 13.03 520.46 12.94L516.61 13.03V9.36L520.81 9.27C521.25 9.27 521.25 7.17 520.72 7.17H514.55C514.402 7.18751 514.267 7.26005 514.171 7.37314C514.074 7.48623 514.024 7.63152 514.03 7.78C514.12 11.98 514.12 16.18 514.12 20.38C514.21 20.55 516.75 20.64 516.75 20.29V15.13H520.55ZM524.4 20.56H529.04C529.57 20.56 529.65 18.2 529.22 18.29H526.16L526.07 7.29C525.55 6.82 523.55 7 523.45 7.35V19.95C523.45 20.38 523.62 20.65 524.41 20.56H524.4Z" fill="#9D8BFF"/>
<path d="M216.998 0C209.2 0.0997206 202.901 6.48184 203.001 14.3598C203.001 20.4427 206.8 25.9273 212.599 27.9218C212.899 28.1212 213.399 27.9218 213.499 27.5229C213.499 27.4232 213.599 27.3234 213.599 27.2237C213.599 26.9246 213.599 25.7279 213.599 24.5313C209.7 25.4287 208.9 22.836 208.9 22.836C208.6 21.9385 208.1 21.2405 207.3 20.7419C206.001 19.8444 207.4 19.8444 207.4 19.8444C208.3 20.0438 209.1 20.5424 209.6 21.3402C210.4 22.836 212.099 23.3346 213.499 22.5368C213.499 22.5368 213.599 22.5368 213.599 22.4371C213.699 21.7391 213.899 21.041 214.499 20.5424C211.399 20.2433 208.1 18.9469 208.1 13.562C208.1 12.1659 208.6 10.7698 209.5 9.77262C209 8.47625 209.1 7.08016 209.6 5.88351C209.6 5.88351 210.8 5.58435 213.399 7.37932C215.699 6.781 218.098 6.781 220.398 7.37932C223.097 5.58435 224.197 5.88351 224.197 5.88351C224.697 7.08016 224.797 8.37653 224.397 9.67289C225.397 10.6701 225.896 12.0662 225.796 13.4623C225.796 18.9469 222.497 20.1436 219.398 20.4427C220.098 21.1408 220.398 22.138 220.398 23.0355C220.398 24.9301 220.398 26.5257 220.398 26.9246C220.398 27.2237 220.698 27.6226 221.097 27.6226C221.197 27.6226 221.297 27.6226 221.397 27.5229C227.196 25.5285 230.995 20.0438 230.995 13.9609C231.195 6.38212 224.897 0.0997206 216.998 0Z" fill="#7FC2BC"/>
<path d="M486.998 0C479.2 0.0997206 472.901 6.48184 473.001 14.3598C473.001 20.4427 476.8 25.9273 482.599 27.9218C482.899 28.1212 483.399 27.9218 483.499 27.5229C483.499 27.4232 483.599 27.3234 483.599 27.2237C483.599 26.9246 483.599 25.7279 483.599 24.5313C479.7 25.4287 478.9 22.836 478.9 22.836C478.6 21.9385 478.1 21.2405 477.3 20.7419C476.001 19.8444 477.4 19.8444 477.4 19.8444C478.3 20.0438 479.1 20.5424 479.6 21.3402C480.4 22.836 482.099 23.3346 483.499 22.5368C483.499 22.5368 483.599 22.5368 483.599 22.4371C483.699 21.7391 483.899 21.041 484.499 20.5424C481.399 20.2433 478.1 18.9469 478.1 13.562C478.1 12.1659 478.6 10.7698 479.5 9.77262C479 8.47625 479.1 7.08016 479.6 5.88351C479.6 5.88351 480.8 5.58435 483.399 7.37932C485.699 6.781 488.098 6.781 490.398 7.37932C493.097 5.58435 494.197 5.88351 494.197 5.88351C494.697 7.08016 494.797 8.37653 494.397 9.67289C495.397 10.6701 495.896 12.0662 495.796 13.4623C495.796 18.9469 492.497 20.1436 489.398 20.4427C490.098 21.1408 490.398 22.138 490.398 23.0355C490.398 24.9301 490.398 26.5257 490.398 26.9246C490.398 27.2237 490.698 27.6226 491.097 27.6226C491.197 27.6226 491.297 27.6226 491.397 27.5229C497.196 25.5285 500.995 20.0438 500.995 13.9609C501.195 6.38212 494.897 0.0997206 486.998 0Z" fill="#9D8BFF"/>
<path d="M467 14C467 16.7689 466.179 19.4757 464.641 21.778C463.102 24.0803 460.916 25.8747 458.358 26.9343C455.799 27.9939 452.984 28.2712 450.269 27.731C447.553 27.1908 445.058 25.8574 443.101 23.8995C441.143 21.9416 439.809 19.447 439.269 16.7313C438.729 14.0155 439.006 11.2006 440.066 8.64243C441.125 6.08427 442.92 3.89777 445.222 2.35943C447.524 0.821086 450.231 0 453 0C456.713 0 460.274 1.475 462.9 4.1005C465.525 6.72601 467 10.287 467 14V14ZM446.88 12.07V7H444.25V20H446.7V15.4C446.694 14.8066 446.782 14.2161 446.96 13.65C447.01 13.4645 447.098 13.2914 447.219 13.1416C447.339 12.9919 447.49 12.8687 447.66 12.78C448.016 12.6108 448.406 12.522 448.8 12.52C449.113 12.5112 449.422 12.6023 449.68 12.78C449.923 12.9146 450.111 13.1306 450.21 13.39C450.353 13.9922 450.41 14.6117 450.38 15.23V20.13H452.83V14.7C452.888 14.0855 452.857 13.4659 452.74 12.86C452.67 12.4826 452.52 12.1246 452.3 11.81C452.044 11.461 451.699 11.188 451.3 11.02C450.55 10.6701 449.705 10.5844 448.9 10.7769C448.096 10.9694 447.38 11.4287 446.87 12.08L446.88 12.07ZM456.59 12.07V7H453.97V20H456.42V15.4C456.414 14.8066 456.502 14.2161 456.68 13.65C456.73 13.4645 456.818 13.2914 456.939 13.1416C457.059 12.9919 457.21 12.8687 457.38 12.78C457.736 12.6111 458.126 12.5224 458.52 12.52C458.833 12.5112 459.142 12.6023 459.4 12.78C459.639 12.9164 459.823 13.1322 459.92 13.39C460.063 13.9922 460.12 14.6117 460.09 15.23V20.13H462.55V14.7C462.608 14.0855 462.577 13.4659 462.46 12.86C462.389 12.4828 462.239 12.1249 462.02 11.81C461.751 11.4537 461.387 11.1801 460.97 11.02C460.222 10.6726 459.378 10.5883 458.576 10.7807C457.773 10.9731 457.059 11.431 456.55 12.08L456.59 12.07Z" fill="#9D8BFF"/>
<path fill-rule="evenodd" clip-rule="evenodd" d="M434 14C434 21.732 427.732 28 420 28C412.268 28 406 21.732 406 14C406 6.26802 412.268 0 420 0C427.732 0 434 6.26802 434 14ZM427.36 9.31999C428.095 9.23308 428.813 9.03761 429.49 8.74001L429.5 8.73C429.001 9.47401 428.375 10.124 427.65 10.65V11.13C427.656 13.021 427.152 14.8785 426.19 16.5069C425.229 18.1352 423.846 19.474 422.188 20.3821C420.529 21.2903 418.656 21.7341 416.766 21.6669C414.876 21.5996 413.04 21.0238 411.45 20C411.743 20.0206 412.037 20.0239 412.33 20.01C413.999 20.0123 415.619 19.4521 416.93 18.42C416.157 18.4053 415.409 18.1497 414.789 17.689C414.168 17.2282 413.707 16.5853 413.47 15.85C413.7 15.8969 413.935 15.9203 414.17 15.92C414.508 15.9221 414.844 15.8784 415.17 15.79C414.326 15.6274 413.565 15.1763 413.018 14.5139C412.471 13.8515 412.171 13.0193 412.17 12.16C412.684 12.4482 413.261 12.6061 413.85 12.62C413.079 12.0958 412.534 11.3007 412.323 10.3927C412.111 9.4848 412.25 8.53061 412.71 7.72C413.638 8.86496 414.798 9.80138 416.113 10.4682C417.427 11.135 418.868 11.5173 420.34 11.59C420.274 11.3149 420.24 11.0329 420.24 10.75C420.24 10.0079 420.463 9.28302 420.88 8.66937C421.298 8.05573 421.89 7.58173 422.58 7.30893C423.27 7.03612 424.026 6.97713 424.75 7.13959C425.474 7.30206 426.133 7.6785 426.64 8.22C427.469 8.05733 428.264 7.75287 428.99 7.31999C428.703 8.1602 428.125 8.86981 427.36 9.31999Z" fill="#9D8BFF"/>
<path d="M384 21.63H387.14V14H389.2L389.46 11.38H387.1V10C387.1 9.30001 387.19 9.00001 388.1 9.00001H389.41V6.37001H387.4C384.87 6.37001 384 7.68001 384 9.77001V11.34H382.43V14H384V21.68V21.63ZM386 28C383.231 28 380.524 27.1789 378.222 25.6406C375.92 24.1022 374.125 21.9157 373.066 19.3576C372.006 16.7994 371.729 13.9845 372.269 11.2687C372.809 8.55301 374.143 6.05845 376.101 4.10051C378.058 2.14258 380.553 0.809205 383.269 0.269012C385.984 -0.271181 388.799 0.00606608 391.358 1.06569C393.916 2.12532 396.102 3.91973 397.641 6.22202C399.179 8.52431 400 11.2311 400 14C399.961 17.7009 398.473 21.2393 395.856 23.8564C393.239 26.4735 389.701 27.961 386 28Z" fill="#9D8BFF"/>
<path d="M352.87 19.8C350.6 19.89 349.56 19.36 348.6 18.49C347.64 17.62 347.99 16.31 348.86 16.22C349.73 16.13 350.26 17.22 350.78 17.53C351.3 17.84 353.05 18.53 354.01 17.44C354.97 16.35 353.31 15.61 352.09 15.44C350.35 15.18 348.09 14.22 348.25 12.21C348.31 11.4057 348.663 10.6514 349.242 10.0894C349.82 9.52748 350.584 9.19686 351.39 9.16001C352.129 9.03414 352.886 9.06998 353.609 9.26507C354.332 9.46016 355.005 9.80984 355.58 10.29C356.71 11.29 356.1 12.38 355.41 12.47C354.72 12.56 353.84 10.81 352.27 10.81C350.7 10.81 349.48 12.55 351.57 13.08C353.66 13.61 355.84 13.78 356.63 15.7C357.42 17.62 355.14 19.63 352.87 19.8ZM359.2 15.26C359.277 14.9326 359.307 14.5959 359.29 14.26C359.29 12.3778 358.544 10.5723 357.215 9.23954C355.886 7.90673 354.082 7.1553 352.2 7.15001C351.821 7.13707 351.442 7.16727 351.07 7.24001C350.394 6.79913 349.607 6.55663 348.8 6.54001C348.241 6.53439 347.687 6.6416 347.171 6.85522C346.655 7.06884 346.187 7.38446 345.796 7.78318C345.405 8.1819 345.098 8.65551 344.894 9.17561C344.691 9.69572 344.594 10.2516 344.61 10.81C344.626 11.6455 344.868 12.4611 345.31 13.17C345.237 13.542 345.207 13.9211 345.22 14.3C345.211 15.2311 345.387 16.1546 345.739 17.0166C346.091 17.8786 346.612 18.6617 347.27 19.3201C347.928 19.9785 348.711 20.4989 349.573 20.8509C350.435 21.2029 351.359 21.3794 352.29 21.37C352.729 21.3836 353.167 21.3535 353.6 21.28C354.284 21.6937 355.071 21.9052 355.87 21.89C356.429 21.8956 356.983 21.7884 357.499 21.5748C358.015 21.3612 358.483 21.0455 358.874 20.6468C359.265 20.2481 359.572 19.7745 359.776 19.2544C359.979 18.7343 360.076 18.1784 360.06 17.62C360 16.7683 359.702 15.9507 359.2 15.26V15.26ZM352 28C349.231 28 346.524 27.1789 344.222 25.6406C341.92 24.1022 340.125 21.9157 339.066 19.3576C338.006 16.7994 337.729 13.9845 338.269 11.2687C338.809 8.55301 340.143 6.05845 342.101 4.10051C344.058 2.14258 346.553 0.809205 349.269 0.269012C351.984 -0.271181 354.799 0.00606608 357.358 1.06569C359.916 2.12532 362.102 3.91973 363.641 6.22202C365.179 8.52431 366 11.2311 366 14C366 17.713 364.525 21.274 361.9 23.8995C359.274 26.525 355.713 28 352 28V28Z" fill="#9D8BFF"/>
<path d="M332 14C332 16.7689 331.179 19.4757 329.641 21.778C328.102 24.0803 325.916 25.8747 323.358 26.9343C320.799 27.9939 317.984 28.2712 315.269 27.731C312.553 27.1908 310.058 25.8574 308.1 23.8995C306.143 21.9416 304.809 19.447 304.269 16.7313C303.729 14.0155 304.006 11.2006 305.066 8.64243C306.125 6.08427 307.92 3.89777 310.222 2.35943C312.524 0.821086 315.231 0 318 0C321.713 0 325.274 1.475 327.899 4.1005C330.525 6.72601 332 10.287 332 14V14ZM317 18.81L318.57 17.23L318.66 17.32L321.55 19.42C321.609 19.5025 321.687 19.5694 321.778 19.6147C321.868 19.6601 321.969 19.6825 322.07 19.68C322.162 19.6813 322.254 19.6642 322.339 19.6295C322.425 19.5948 322.503 19.5432 322.568 19.478C322.633 19.4127 322.685 19.335 322.719 19.2495C322.754 19.1639 322.771 19.0723 322.77 18.98C323.08 17.45 323.4 15.92 323.77 14.39C324.14 12.86 324.43 11.33 324.77 9.8C324.872 9.56143 324.936 9.30837 324.96 9.05C324.96 8.91 324.96 8.78 325.03 8.66C325.034 8.50841 325.003 8.35795 324.94 8.22C324.899 8.14119 324.842 8.07206 324.772 8.01728C324.702 7.96251 324.621 7.92337 324.535 7.90252C324.449 7.88166 324.359 7.87957 324.272 7.89639C324.185 7.91321 324.102 7.94854 324.03 8L315.15 11.46C314.26 11.87 313.31 12.23 312.39 12.58L311.65 12.86C311.458 12.9461 311.282 13.0645 311.13 13.21C311.106 13.21 311.083 13.2195 311.066 13.2364C311.049 13.2532 311.04 13.2761 311.04 13.3C311.021 13.3819 311.027 13.4677 311.057 13.5461C311.088 13.6246 311.141 13.6921 311.21 13.74L311.43 13.83L311.65 13.92L314.54 14.8C314.602 14.8169 314.659 14.8498 314.705 14.8954C314.75 14.941 314.783 14.9978 314.8 15.06C315.02 15.67 315.22 16.31 315.41 16.94C315.6 17.57 315.8 18.21 316.02 18.82C316.032 18.9007 316.076 18.9733 316.142 19.0219C316.207 19.0706 316.289 19.0915 316.37 19.08C316.616 19.0742 316.851 18.978 317.03 18.81H317ZM316.3 18.11V18.2L315.78 16.27C315.673 15.7917 315.526 15.3233 315.34 14.87C315.325 14.848 315.315 14.8227 315.311 14.7961C315.307 14.7695 315.31 14.7424 315.319 14.7171C315.328 14.6917 315.342 14.6688 315.362 14.6502C315.381 14.6316 315.404 14.6178 315.43 14.61L322.17 10.41C322.266 10.3158 322.388 10.253 322.52 10.23H322.78L322.61 10.41L319.55 13.12L316.75 15.57C316.67 15.6114 316.603 15.6747 316.557 15.7525C316.511 15.8304 316.487 15.9196 316.49 16.01C316.477 16.7095 316.42 17.4075 316.32 18.1V18.1L316.3 18.11Z" fill="#9D8BFF"/>
<path fill-rule="evenodd" clip-rule="evenodd" d="M298 14C298 21.732 291.732 28 284 28C276.268 28 270 21.732 270 14C270 6.26801 276.268 0 284 0C291.732 0 298 6.26801 298 14ZM292.55 19.07L286.9 14.22L292.48 9.41L291.94 8.87L285.72 14.2L283.9 15.76L275.9 8.86L275.37 9.35L281.02 14.2L275.4 19.02L275.94 19.56L281.61 14.7L283.96 16.7L286.34 14.7L292.04 19.58L292.55 19.07ZM293.9 8.86V19.58C293.9 19.7842 293.819 19.9801 293.674 20.1245C293.53 20.2689 293.334 20.35 293.13 20.35H274.75C274.546 20.35 274.35 20.2689 274.206 20.1245C274.061 19.9801 273.98 19.7842 273.98 19.58V8.84C273.98 8.64108 274.059 8.45032 274.2 8.30967C274.34 8.16901 274.531 8.09 274.73 8.09H293.13C293.334 8.09 293.53 8.17112 293.674 8.31552C293.819 8.45993 293.9 8.65578 293.9 8.86Z" fill="#9D8BFF"/>
<path d="M265 14C265 16.7689 264.179 19.4757 262.641 21.778C261.102 24.0803 258.916 25.8747 256.358 26.9343C253.799 27.9939 250.984 28.2712 248.269 27.731C245.553 27.1908 243.058 25.8574 241.101 23.8995C239.143 21.9416 237.809 19.447 237.269 16.7313C236.729 14.0155 237.006 11.2006 238.066 8.64243C239.125 6.08427 240.92 3.89777 243.222 2.35943C245.524 0.821086 248.231 0 251 0C254.713 0 258.274 1.475 260.9 4.1005C263.525 6.72601 265 10.287 265 14V14ZM250.56 15.13C251 14.78 251 13.03 250.47 12.94L246.62 13.03V9.36L250.82 9.27C251.26 9.27 251.26 7.17 250.73 7.17H244.52C244.371 7.18515 244.233 7.25669 244.134 7.37002C244.036 7.48336 243.984 7.62997 243.99 7.78C244.08 11.98 244.08 16.18 244.08 20.38C244.17 20.55 246.7 20.64 246.7 20.29V15.13H250.55H250.56ZM254.41 20.55H259.05C259.58 20.55 259.66 18.19 259.23 18.28H256.17L256.08 7.28C255.55 6.84 253.54 7.02 253.46 7.37V19.97C253.45 20.38 253.62 20.65 254.41 20.56V20.55Z" fill="#7FC2BC"/>
<path d="M197 14C197 16.7689 196.179 19.4757 194.641 21.778C193.102 24.0803 190.916 25.8747 188.358 26.9343C185.799 27.9939 182.984 28.2712 180.269 27.731C177.553 27.1908 175.058 25.8574 173.101 23.8995C171.143 21.9416 169.809 19.447 169.269 16.7313C168.729 14.0155 169.006 11.2006 170.066 8.64243C171.125 6.08427 172.92 3.89777 175.222 2.35943C177.524 0.821086 180.231 0 183 0C186.713 0 190.274 1.475 192.9 4.1005C195.525 6.72601 197 10.287 197 14V14ZM176.88 12.08V7H174.26V20H176.71V15.4C176.704 14.8066 176.792 14.216 176.97 13.65C177.02 13.4645 177.108 13.2914 177.229 13.1416C177.349 12.9919 177.5 12.8687 177.67 12.78C178.026 12.6111 178.416 12.5224 178.81 12.52C179.12 12.5134 179.424 12.6043 179.68 12.78C179.919 12.9164 180.103 13.1322 180.2 13.39C180.347 13.9917 180.407 14.6112 180.38 15.23V20.13H182.83V14.7C182.888 14.0855 182.857 13.4659 182.74 12.86C182.663 12.5002 182.513 12.1599 182.3 11.86C182.031 11.5037 181.667 11.2301 181.25 11.07C180.512 10.7273 179.68 10.6405 178.887 10.8234C178.093 11.0063 177.384 11.4485 176.87 12.08H176.88ZM186.59 12.08V7H183.97V20H186.42V15.4C186.414 14.8066 186.502 14.216 186.68 13.65C186.73 13.4645 186.818 13.2914 186.939 13.1416C187.059 12.9919 187.21 12.8687 187.38 12.78C187.736 12.6111 188.126 12.5224 188.52 12.52C188.833 12.5112 189.142 12.6023 189.4 12.78C189.639 12.9164 189.823 13.1322 189.92 13.39C190.063 13.9922 190.121 14.6117 190.09 15.23V20.13H192.54V14.7C192.598 14.0855 192.567 13.4659 192.45 12.86C192.373 12.5002 192.223 12.1599 192.01 11.86C191.741 11.5037 191.377 11.2301 190.96 11.07C190.222 10.7273 189.39 10.6405 188.597 10.8234C187.803 11.0063 187.094 11.4485 186.58 12.08H186.59Z" fill="#7FC2BC"/>
<path fill-rule="evenodd" clip-rule="evenodd" d="M163 14C163 21.732 156.732 28 149 28C141.268 28 135 21.732 135 14C135 6.26802 141.268 0 149 0C156.732 0 163 6.26802 163 14ZM156.36 9.31999C157.095 9.23308 157.813 9.03761 158.49 8.74001H158.51C158.011 9.48401 157.385 10.134 156.66 10.66V11.14C156.666 13.0309 156.162 14.8885 155.2 16.5168C154.239 18.1452 152.856 19.484 151.198 20.3921C149.539 21.3003 147.666 21.7441 145.776 21.6769C143.886 21.6096 142.05 21.0338 140.46 20.01C140.752 20.0439 141.046 20.0606 141.34 20.06C143.009 20.0623 144.629 19.5021 145.94 18.47C145.167 18.4553 144.419 18.1997 143.799 17.739C143.178 17.2782 142.717 16.6353 142.48 15.9C142.71 15.9469 142.945 15.9703 143.18 15.97C143.518 15.9721 143.854 15.9284 144.18 15.84C143.336 15.6774 142.575 15.2263 142.028 14.5639C141.481 13.9015 141.181 13.0693 141.18 12.21C141.694 12.4982 142.271 12.6561 142.86 12.67C142.074 12.1462 141.518 11.3425 141.304 10.4228C141.091 9.50308 141.236 8.5365 141.71 7.72C142.639 8.86496 143.798 9.80138 145.113 10.4682C146.427 11.135 147.868 11.5173 149.34 11.59C149.274 11.3149 149.24 11.0329 149.24 10.75C149.24 10.0079 149.463 9.28302 149.88 8.66937C150.298 8.05573 150.89 7.58173 151.58 7.30893C152.27 7.03612 153.026 6.97713 153.75 7.13959C154.474 7.30206 155.133 7.6785 155.64 8.22C156.469 8.05733 157.264 7.75287 157.99 7.31999C157.703 8.1602 157.125 8.86981 156.36 9.31999Z" fill="#7FC2BC"/>
<path d="M113 21.63H116.14V14H118.23L118.49 11.38H116.13V10C116.13 9.3 116.22 9 117.13 9H118.44V6.37H116.35C113.82 6.37 112.95 7.68 112.95 9.77V11.34H111.38V14H113V21.68V21.63ZM115 28C112.231 28 109.524 27.1789 107.222 25.6406C104.92 24.1022 103.125 21.9157 102.066 19.3576C101.006 16.7994 100.729 13.9845 101.269 11.2687C101.809 8.553 103.143 6.05844 105.101 4.1005C107.058 2.14257 109.553 0.809199 112.269 0.269006C114.984 -0.271187 117.799 0.00605983 120.358 1.06569C122.916 2.12531 125.102 3.91973 126.641 6.22202C128.179 8.5243 129 11.2311 129 14C128.961 17.7009 127.473 21.2393 124.856 23.8563C122.239 26.4734 118.701 27.961 115 28V28Z" fill="#7FC2BC"/>
<path d="M82.83 19.8C80.56 19.89 79.52 19.36 78.56 18.49C77.6 17.62 77.95 16.31 78.82 16.22C79.69 16.13 80.22 17.22 80.74 17.53C81.26 17.84 83.01 18.53 83.97 17.44C84.93 16.35 83.27 15.61 82.05 15.44C80.31 15.18 78.05 14.22 78.21 12.21C78.2703 11.4057 78.623 10.6514 79.2015 10.0894C79.78 9.52748 80.5443 9.19685 81.35 9.16C82.0886 9.03413 82.8457 9.06998 83.569 9.26506C84.2924 9.46015 84.9649 9.80984 85.54 10.29C86.67 11.29 86.06 12.38 85.37 12.47C84.68 12.56 83.8 10.81 82.23 10.81C80.66 10.81 79.44 12.55 81.53 13.08C83.62 13.61 85.8 13.78 86.59 15.7C87.38 17.62 85.1 19.63 82.83 19.8ZM89.11 15.26C89.1868 14.9326 89.2171 14.5959 89.2 14.26C89.2053 13.3263 89.0266 12.4007 88.6741 11.5361C88.3217 10.6714 87.8024 9.88466 87.1459 9.22072C86.4893 8.55678 85.7085 8.02865 84.8479 7.66649C83.9872 7.30434 83.0637 7.11524 82.13 7.11C81.7496 7.11021 81.3705 7.15382 81 7.24C80.3236 6.79913 79.5372 6.55662 78.73 6.54C78.1714 6.53438 77.6174 6.64159 77.1013 6.85521C76.5851 7.06883 76.1174 7.38446 75.7262 7.78318C75.3349 8.1819 75.0282 8.6555 74.8244 9.17561C74.6205 9.69572 74.5238 10.2516 74.54 10.81C74.5556 11.6455 74.7975 12.4611 75.24 13.17C75.1673 13.542 75.1371 13.9211 75.15 14.3C75.1407 15.231 75.3171 16.1546 75.6691 17.0166C76.0211 17.8786 76.5415 18.6617 77.1999 19.3201C77.8583 19.9785 78.6414 20.4989 79.5034 20.8509C80.3654 21.2029 81.289 21.3794 82.22 21.37C82.6586 21.3836 83.0974 21.3535 83.53 21.28C84.2138 21.6937 85.0009 21.9052 85.8 21.89C86.3594 21.897 86.9145 21.7908 87.4318 21.5778C87.9492 21.3647 88.4181 21.0493 88.8104 20.6505C89.2027 20.2516 89.5103 19.7775 89.7148 19.2568C89.9192 18.736 90.0162 18.1792 90 17.62C89.9311 16.7653 89.6227 15.9473 89.11 15.26ZM82 28C79.2311 28 76.5243 27.1789 74.222 25.6406C71.9197 24.1022 70.1253 21.9157 69.0657 19.3576C68.0061 16.7994 67.7288 13.9845 68.269 11.2687C68.8092 8.553 70.1426 6.05844 72.1005 4.1005C74.0584 2.14257 76.553 0.809199 79.2687 0.269006C81.9845 -0.271187 84.7994 0.00605983 87.3576 1.06569C89.9157 2.12531 92.1022 3.91973 93.6406 6.22202C95.1789 8.5243 96 11.2311 96 14C96 17.713 94.525 21.274 91.8995 23.8995C89.274 26.525 85.713 28 82 28V28Z" fill="#7FC2BC"/>
<path d="M62 14C62 16.7689 61.1789 19.4757 59.6406 21.778C58.1022 24.0803 55.9157 25.8747 53.3576 26.9343C50.7994 27.9939 47.9845 28.2712 45.2687 27.731C42.553 27.1908 40.0584 25.8574 38.1005 23.8995C36.1426 21.9416 34.8092 19.447 34.269 16.7313C33.7288 14.0155 34.0061 11.2006 35.0657 8.64243C36.1253 6.08427 37.9197 3.89777 40.222 2.35943C42.5243 0.821086 45.2311 0 48 0C51.713 0 55.274 1.475 57.8995 4.1005C60.525 6.72601 62 10.287 62 14V14ZM47 18.81L48.57 17.23L48.66 17.32L51.55 19.42C51.6088 19.5025 51.687 19.5694 51.7776 19.6147C51.8683 19.6601 51.9687 19.6825 52.07 19.68C52.1623 19.6813 52.2539 19.6642 52.3395 19.6295C52.425 19.5948 52.5027 19.5432 52.568 19.478C52.6333 19.4127 52.6848 19.335 52.7195 19.2495C52.7542 19.1639 52.7714 19.0723 52.77 18.98C53.08 17.45 53.4 15.92 53.77 14.39C54.14 12.86 54.43 11.33 54.77 9.8C54.872 9.56143 54.9361 9.30837 54.96 9.05C54.96 8.91 54.96 8.78 55.03 8.66C55.0338 8.50841 55.003 8.35795 54.94 8.22C54.8999 8.13657 54.8415 8.06318 54.7693 8.00524C54.6971 7.9473 54.6128 7.90628 54.5226 7.88518C54.4325 7.86408 54.3387 7.86344 54.2483 7.88331C54.1579 7.90318 54.073 7.94305 54 8L45.07 11.5C44.18 11.91 43.23 12.27 42.32 12.62L41.57 12.9C41.3744 12.9851 41.195 13.1035 41.04 13.25C41.0161 13.25 40.9932 13.2595 40.9764 13.2764C40.9595 13.2932 40.95 13.3161 40.95 13.34C40.932 13.4229 40.9396 13.5094 40.9718 13.5879C41.0039 13.6665 41.0591 13.7334 41.13 13.78L41.35 13.87L41.57 13.96L44.46 14.84C44.5222 14.8569 44.579 14.8898 44.6246 14.9354C44.6702 14.981 44.7031 15.0378 44.72 15.1C44.94 15.71 45.14 16.35 45.33 16.98C45.52 17.61 45.72 18.25 45.94 18.86C45.9524 18.9407 45.996 19.0132 46.0616 19.0619C46.1271 19.1106 46.2092 19.1315 46.29 19.12C46.423 19.1182 46.5543 19.0898 46.6762 19.0366C46.7982 18.9833 46.9082 18.9063 47 18.81V18.81ZM46.3 18.11V18.2L45.78 16.27C45.6735 15.7916 45.5263 15.3233 45.34 14.87C45.3246 14.848 45.3147 14.8227 45.311 14.7961C45.3073 14.7695 45.31 14.7424 45.3187 14.7171C45.3275 14.6917 45.3422 14.6688 45.3615 14.6502C45.3809 14.6316 45.4043 14.6178 45.43 14.61L52.17 10.41C52.2656 10.3158 52.3877 10.253 52.52 10.23H52.78L52.61 10.41L49.55 13.12L46.75 15.57C46.6696 15.6114 46.6026 15.6747 46.5566 15.7525C46.5106 15.8304 46.4875 15.9196 46.49 16.01C46.4834 16.7124 46.4333 17.4138 46.34 18.11H46.3Z" fill="#7FC2BC"/>
<path fill-rule="evenodd" clip-rule="evenodd" d="M28 14C28 21.732 21.732 28 14 28C6.26802 28 0 21.732 0 14C0 6.26802 6.26802 0 14 0C21.732 0 28 6.26802 28 14ZM22.59 19.07L16.94 14.22L22.56 9.39999L22 8.86L15.75 14.2L13.93 15.76L5.93001 8.86L5.42 9.37L11.07 14.18L5.45 19L6 19.58L11.65 14.7L14 16.7L16.38 14.7L22.08 19.58L22.59 19.07ZM23.94 8.86V19.58H24C24.0001 19.6846 23.979 19.7881 23.9378 19.8842C23.8966 19.9803 23.8363 20.0671 23.7605 20.1391C23.6847 20.2112 23.595 20.267 23.497 20.3033C23.3989 20.3395 23.2944 20.3554 23.19 20.35H4.77C4.56578 20.35 4.36993 20.2689 4.22552 20.1245C4.08113 19.9801 4 19.7842 4 19.58V8.84C3.99986 8.73805 4.02049 8.63713 4.06067 8.54343C4.10083 8.44974 4.15968 8.3652 4.23361 8.29501C4.30756 8.22481 4.39503 8.17043 4.49069 8.13518C4.58635 8.09993 4.6882 8.08456 4.78999 8.09H23.17C23.3742 8.09 23.5701 8.17113 23.7145 8.31552C23.8589 8.45993 23.94 8.65578 23.94 8.86Z" fill="#7FC1BB"/>
</g>
<defs>
<clipPath id="clip0">
<rect width="535" height="28" fill="white"/>
</clipPath>
</defs>
</svg>
