<svg xmlns="http://www.w3.org/2000/svg" viewBox="0 0 32.11 32.11"><title>ico-github</title><path d="M16.06,0A16.26,16.26,0,0,0,0,16.46,16.43,16.43,0,0,0,11,32.08a0.81,0.81,0,0,0,1.1-.79c0-.39,0-1.69,0-3.06-4.46,1-5.41-1.94-5.41-1.94a4.34,4.34,0,0,0-1.78-2.41c-1.46-1,.11-1,0.11-1a3.38,3.38,0,0,1,2.46,1.7,3.37,3.37,0,0,0,4.67,1.37,3.55,3.55,0,0,1,1-2.2c-3.56-.42-7.31-1.83-7.31-8.14a6.46,6.46,0,0,1,1.65-4.42,6.07,6.07,0,0,1,.16-4.36S9,6.38,12,8.51a14.84,14.84,0,0,1,8,0c3.06-2.13,4.41-1.69,4.41-1.69a6,6,0,0,1,.16,4.36A6.44,6.44,0,0,1,26.3,15.6c0,6.32-3.76,7.72-7.33,8.12a4,4,0,0,1,1.09,3c0,2.2,0,4,0,4.52a0.81,0.81,0,0,0,1.11.79,16.44,16.44,0,0,0,11-15.62A16.26,16.26,0,0,0,16.06,0Z" transform="translate(0 0)" style="fill:#7fc2bc"/></svg>