<svg xmlns="http://www.w3.org/2000/svg" viewBox="0 0 32.11 32.11"><path fill="#7fc2bc" d="M16.06 0A16.26 16.26 0 0 0 0 16.46a16.43 16.43 0 0 0 11 15.62.81.81 0 0 0 1.05-.47.86.86 0 0 0 0-.32v-3.06c-4.46 1-5.41-1.94-5.41-1.94a4.36 4.36 0 0 0-1.78-2.41c-1.46-1 .11-1 .11-1a3.36 3.36 0 0 1 2.46 1.7A3.37 3.37 0 0 0 12 26l.13-.07a3.56 3.56 0 0 1 1-2.2c-3.56-.42-7.31-1.83-7.31-8.14a6.43 6.43 0 0 1 1.65-4.42 6.07 6.07 0 0 1 .16-4.36S9 6.38 12 8.51a14.89 14.89 0 0 1 8 0c3.06-2.13 4.41-1.69 4.41-1.69a6 6 0 0 1 .16 4.36 6.42 6.42 0 0 1 1.73 4.42c0 6.32-3.76 7.72-7.33 8.12a4 4 0 0 1 1.09 3v4.52a.81.81 0 0 0 .77.85 1 1 0 0 0 .34-.06 16.43 16.43 0 0 0 11-15.62A16.26 16.26 0 0 0 16.06 0z"/></svg>