<svg xmlns="http://www.w3.org/2000/svg" viewBox="0 0 1792 1536"><defs><style>.a{fill:#25264d;}</style></defs><title>external-link</title><path class="a" d="M1408,928v320q0,119-84.5,203.5T1120,1536H288q-119,0-203.5-84.5T0,1248V416Q0,297,84.5,212.5T288,128H992q14,0,23,9t9,23v64q0,14-9,23t-23,9H288q-66,0-113,47T128,416v832q0,66,47,113t113,47h832q66,0,113-47t47-113V928q0-14,9-23t23-9h64q14,0,23,9T1408,928ZM1792,64V576q0,26-19,45t-45,19q-26,0-45-19L1507,445,855,1097q-10,10-23,10t-23-10L695,983q-10-10-10-23t10-23l652-652L1171,109q-19-19-19-45t19-45q19-19,45-19h512q26,0,45,19T1792,64Z"/></svg>