<svg xmlns="http://www.w3.org/2000/svg" width="64" height="64" viewBox="0 0 64 64"><title>if_money_1055022</title><circle cx="32" cy="32" r="32" style="fill:#25264d"/><g style="opacity:0.20000000298023224"><path d="M50,33.06a4,4,0,0,1-4-4,4,4,0,0,1,.15-1H21.88A4,4,0,0,1,22,29a4,4,0,0,1-5,3.89v8.19A4,4,0,0,1,18,41a4,4,0,0,1,3.89,5H46.08a4,4,0,0,1-.14-1,4,4,0,0,1,4-4,4,4,0,0,1,1,.15V32.91A4,4,0,0,1,50,33.06ZM34,43a6,6,0,1,1,6-6A6,6,0,0,1,34,43Z" style="fill:#231f20"/><path d="M50,25H18a4,4,0,0,0-4,4c0,0.11,0,.21,0,0.31V44.69c0,0.1,0,.2,0,0.31a4,4,0,0,0,4,4c0.11,0,.21,0,0.31,0H49.66c0.1,0,.2,0,0.31,0a4,4,0,0,0,4-4V29A4,4,0,0,0,50,25Zm0,16a4,4,0,0,0-3.89,5H21.89A4,4,0,0,0,22,45a4,4,0,0,0-5-3.89V32.92a4,4,0,0,0,1,.14,4,4,0,0,0,4-4,4,4,0,0,0-.15-1H46.09a4,4,0,0,0-.15,1,4,4,0,0,0,4,4,4,4,0,0,0,1-.15v8.21A4,4,0,0,0,50,41Z" style="fill:#231f20"/><circle cx="34" cy="37" r="6" style="fill:#231f20"/></g><path d="M18,46a3,3,0,0,1-3-3V27a3,3,0,0,1,3-3H50a3,3,0,0,1,3,3V43a3,3,0,0,1-3,3H18Z" style="fill:#82ceb8"/><path d="M50,25a2,2,0,0,1,2,2V43a2,2,0,0,1-2,2H18a2,2,0,0,1-2-2V27a2,2,0,0,1,2-2H50m0-2H18a4,4,0,0,0-4,4V43a4,4,0,0,0,4,4H50a4,4,0,0,0,4-4V27a4,4,0,0,0-4-4h0Z" style="fill:#e2e2e2"/><circle cx="34" cy="35" r="6" style="fill:#4f5d73"/><circle cx="49.97" cy="27.03" r="4.03" style="fill:#e2e2e2"/><circle cx="18" cy="27.03" r="4.03" style="fill:#e2e2e2"/><circle cx="49.97" cy="43" r="4.03" style="fill:#e2e2e2"/><circle cx="18" cy="43" r="4.03" style="fill:#e2e2e2"/><g style="opacity:0.20000000298023224"><path d="M48,29.06a4,4,0,0,1-4-4,4,4,0,0,1,.15-1H19.88A4,4,0,0,1,20,25a4,4,0,0,1-5,3.89v8.19A4,4,0,0,1,16,37a4,4,0,0,1,3.89,5H44.08a4,4,0,0,1-.14-1,4,4,0,0,1,4-4,4,4,0,0,1,1,.15V28.91A4,4,0,0,1,48,29.06ZM32,39a6,6,0,1,1,6-6A6,6,0,0,1,32,39Z" style="fill:#231f20"/><path d="M48,21H16a4,4,0,0,0-4,4c0,0.11,0,.21,0,0.31V40.69c0,0.1,0,.2,0,0.31a4,4,0,0,0,4,4c0.11,0,.21,0,0.31,0H47.66c0.1,0,.2,0,0.31,0a4,4,0,0,0,4-4V25A4,4,0,0,0,48,21Zm0,16a4,4,0,0,0-3.89,5H19.89A4,4,0,0,0,20,41a4,4,0,0,0-5-3.89V28.92a4,4,0,0,0,1,.14,4,4,0,0,0,4-4,4,4,0,0,0-.15-1H44.09a4,4,0,0,0-.15,1,4,4,0,0,0,4,4,4,4,0,0,0,1-.15v8.21A4,4,0,0,0,48,37Z" style="fill:#231f20"/><circle cx="32" cy="33" r="6" style="fill:#231f20"/></g><path d="M14,42a3,3,0,0,1-3-3V23a3,3,0,0,1,3-3H46a3,3,0,0,1,3,3V39a3,3,0,0,1-3,3H14Z" style="fill:#82ceb8"/><path d="M46,21a2,2,0,0,1,2,2V39a2,2,0,0,1-2,2H14a2,2,0,0,1-2-2V23a2,2,0,0,1,2-2H46m0-2H14a4,4,0,0,0-4,4V39a4,4,0,0,0,4,4H46a4,4,0,0,0,4-4V23a4,4,0,0,0-4-4h0Z" style="fill:#e2e2e2"/><circle cx="30" cy="31" r="6" style="fill:#4f5d73"/><circle cx="45.97" cy="23.03" r="4.03" style="fill:#e2e2e2"/><circle cx="14" cy="23.03" r="4.03" style="fill:#e2e2e2"/><circle cx="45.97" cy="39" r="4.03" style="fill:#e2e2e2"/><circle cx="14" cy="39" r="4.03" style="fill:#e2e2e2"/></svg>