<svg xmlns="http://www.w3.org/2000/svg" width="64" height="64" viewBox="0 0 64 64"><title>if_calendar_1055101</title><circle cx="32" cy="32" r="32" style="fill:#25264d"/><g style="opacity:0.20000000298023224"><path d="M13.64,26.49V49.44a3.67,3.67,0,0,0,3.67,3.67H46.68a3.67,3.67,0,0,0,3.67-3.67V26.49H13.64Z" style="fill:#231f20"/></g><path d="M13.64,24.66V47.6a3.67,3.67,0,0,0,3.67,3.67H46.68a3.67,3.67,0,0,0,3.67-3.67V24.66H13.64Z" style="fill:#fff"/><g style="opacity:0.20000000298023224"><path d="M46.68,16.4H17.32a3.67,3.67,0,0,0-3.67,3.67v6.42H50.36V20.07A3.67,3.67,0,0,0,46.68,16.4Z" style="fill:#231f20"/></g><path d="M46.68,14.56H17.32a3.67,3.67,0,0,0-3.67,3.67v6.42H50.36V18.23A3.67,3.67,0,0,0,46.68,14.56Z" style="fill:#f6bcae"/><path d="M32,47.6a1.84,1.84,0,0,1-1.84-1.84,19.22,19.22,0,0,1,3.2-11h-6a1.84,1.84,0,1,1,0-3.67h10.1a1.84,1.84,0,0,1,1.06,3.33c-0.15.14-4.74,3.54-4.74,11.35A1.84,1.84,0,0,1,32,47.6Z" style="fill:#4f5d73"/><g style="opacity:0.20000000298023224"><path d="M20,21a2,2,0,0,1-2-2V12a2,2,0,0,1,2-2h0a2,2,0,0,1,2,2v7a2,2,0,0,1-2,2h0Z" style="fill:#231f20"/></g><g style="opacity:0.20000000298023224"><path d="M45,21a2,2,0,0,1-2-2V12a2,2,0,0,1,2-2h0a2,2,0,0,1,2,2v7a2,2,0,0,1-2,2h0Z" style="fill:#231f20"/></g><path d="M21,21a1.84,1.84,0,0,1-1.84-1.84V12.73A1.84,1.84,0,0,1,21,10.89h0a1.84,1.84,0,0,1,1.84,1.84v6.42A1.84,1.84,0,0,1,21,21h0Z" style="fill:#e2e2e2"/><path d="M43.93,21a1.84,1.84,0,0,1-1.84-1.84V12.73a1.84,1.84,0,0,1,1.84-1.84h0a1.84,1.84,0,0,1,1.84,1.84v6.42A1.84,1.84,0,0,1,43.93,21h0Z" style="fill:#e2e2e2"/></svg>