<svg xmlns="http://www.w3.org/2000/svg" width="64" height="64" viewBox="0 0 64 64"><title>if_chat_1055095</title><circle cx="32" cy="32" r="32" style="fill:#25264d"/><g style="opacity:0.20000000298023224"><path d="M52,32c0-9.94-9-18-20-18S12,22.06,12,32c0,9.57,8.3,17.37,18.77,17.94C31.46,53.6,32,56,32,56a46.79,46.79,0,0,0,9.64-8.23C47.81,44.71,52,38.79,52,32Z"/></g><path d="M49,28.8C49,43.76,32,54,32,54s-9.39-42,0-42A16.9,16.9,0,0,1,49,28.8h0Z" style="fill:#e2e2e2"/><ellipse cx="32" cy="30" rx="20" ry="18" style="fill:#e2e2e2"/><circle cx="32" cy="30" r="2" style="fill:#4f5d73"/><circle cx="40" cy="30" r="2" style="fill:#4f5d73"/><circle cx="24" cy="30" r="2" style="fill:#4f5d73"/></svg>