<svg width="46" height="46" viewBox="0 0 46 46" version="1.1" xmlns="http://www.w3.org/2000/svg" xmlns:xlink="http://www.w3.org/1999/xlink">
<g id="Canvas" fill="none">
<g id="logo">
<path fill-rule="evenodd" clip-rule="evenodd" d="M 23 46C 35.7025 46 46 35.7025 46 23C 46 10.2975 35.7025 0 23 0C 10.2975 0 0 10.2975 0 23C 0 35.7025 10.2975 46 23 46ZM 36.5899 19.549C 36.6863 19.4514 36.8528 19.3219 37.0894 19.1604C 37.331 19.0135 37.4345 18.8892 37.3999 18.7876L 37.0889 17.873C 37.0642 17.8005 37.0252 17.7571 36.9717 17.7429C 36.9328 17.7237 36.8141 17.7317 36.6155 17.7668C 36.3344 17.7976 36.126 17.8037 35.9901 17.7852C 35.8542 17.7666 35.7376 17.7334 35.6404 17.6855C 35.5431 17.6376 35.4312 17.5704 35.3046 17.4839C 35.173 17.3828 35.0316 17.2527 34.8803 17.0937C 34.7436 16.9296 34.5993 16.7196 34.4474 16.4635C 34.3051 16.188 34.1673 15.8542 34.034 15.4623L 32.7529 11.6952C 32.6393 11.3613 32.4895 11.0397 32.3033 10.7305C 32.1123 10.4068 31.8875 10.127 31.6291 9.89093C 31.3657 9.64038 31.0688 9.45792 30.7384 9.34354C 30.4176 9.20972 30.0609 9.16098 29.6683 9.1973C 29.4744 9.19849 29.2322 9.24844 28.9419 9.34717L 27.8096 9.73227C 27.6644 9.78162 27.619 9.88617 27.6733 10.0458L 28.125 11.3741C 28.1843 11.5483 28.2865 11.6107 28.4317 11.5614L 29.4333 11.2207C 29.593 11.1664 29.7949 11.284 30.0392 11.5735C 30.2929 11.8434 30.521 12.276 30.7234 12.8712L 31.9824 16.573C 32.2342 17.3134 32.5698 17.8956 32.9894 18.3198C 33.409 18.7439 33.9128 19.0585 34.5007 19.2634C 34.1646 19.7989 33.9595 20.3625 33.8855 20.9546C 33.8211 21.5271 33.9148 22.1836 34.1665 22.924L 35.4329 26.6475C 35.6353 27.2427 35.7182 27.7247 35.6817 28.0934C 35.6451 28.4622 35.547 28.6737 35.3873 28.728L 34.3857 29.0686C 34.2405 29.118 34.1975 29.2298 34.2568 29.404L 34.7085 30.7323C 34.7677 30.9065 34.87 30.9689 35.0151 30.9195L 36.1692 30.527C 36.445 30.4332 36.6674 30.3252 36.8364 30.2029C 37.1697 29.9924 37.4227 29.7363 37.5954 29.4346C 37.7827 29.128 37.9068 28.8024 37.9677 28.4578C 38.0287 28.1131 38.0362 27.7542 37.9903 27.3812C 37.9493 27.0226 37.8721 26.6764 37.7585 26.3425L 36.47 22.5536C 36.3367 22.1617 36.2449 21.8203 36.1946 21.5297C 36.154 21.2196 36.1378 20.9579 36.1462 20.7445C 36.1546 20.5311 36.1826 20.3515 36.2302 20.2057C 36.2778 20.06 36.3256 19.9385 36.3735 19.8412C 36.431 19.7245 36.5031 19.6271 36.5899 19.549ZM 23.9401 32.4996L 22.3723 33.0328C 22.2126 33.0871 22.0769 33.0927 21.9651 33.0498C 21.8727 33.0164 21.826 32.9027 21.8248 32.7088L 21.8586 14.3069C 21.8624 14.1275 21.9514 14.0082 22.1256 13.9489L 23.8458 13.3639C 24.1797 13.2503 24.3525 13.3535 24.3641 13.6735L 24.3372 32.0244C 24.3236 32.1748 24.2782 32.2793 24.201 32.338C 24.1432 32.4062 24.0562 32.4601 23.9401 32.4996ZM 10.8373 17.545C 10.6776 17.5993 10.582 17.8181 10.5504 18.2014C 10.5138 18.5701 10.5967 19.052 10.7991 19.6472L 12.0581 23.349C 12.3099 24.0894 12.3988 24.7556 12.3248 25.3476C 12.2653 25.9347 12.0577 26.4911 11.7021 27.017C 12.3095 27.2315 12.8158 27.5533 13.2208 27.9824C 13.6355 28.392 13.9687 28.967 14.2205 29.7074L 15.4868 33.4309C 15.6892 34.0261 15.9173 34.4587 16.1711 34.7287C 16.4249 34.9987 16.6316 35.1066 16.7913 35.0522L 17.793 34.7116C 17.9381 34.6622 18.0403 34.7246 18.0996 34.8988L 18.5513 36.2271C 18.6106 36.4013 18.5676 36.5131 18.4224 36.5625L 17.2683 36.955C 16.9925 37.0488 16.7504 37.0987 16.5419 37.1049C 16.1494 37.1412 15.7854 37.0949 15.4501 36.966C 15.1292 36.8322 14.8396 36.6473 14.5812 36.4112C 14.3228 36.1752 14.098 35.8953 13.9069 35.5716C 13.7208 35.2624 13.571 34.9409 13.4574 34.607L 12.1689 30.8181C 12.0356 30.4261 11.893 30.1021 11.7411 29.8461C 11.5988 29.5705 11.4593 29.3508 11.3225 29.1867C 11.1857 29.0227 11.0541 28.8974 10.9275 28.8109C 10.8009 28.7244 10.6889 28.6572 10.5917 28.6093C 10.4749 28.5518 10.3511 28.5211 10.2202 28.517C 10.0988 28.4935 9.89513 28.4899 9.60915 28.5062C 9.41055 28.5413 9.28455 28.5518 9.23111 28.5375C 9.19221 28.5184 9.16042 28.4725 9.13573 28.3999L 8.82469 27.4854C 8.80002 27.4128 8.79726 27.357 8.81641 27.3181C 8.85008 27.2743 8.95634 27.2057 9.13519 27.1125C 9.37674 26.9656 9.54092 26.8531 9.62773 26.775C 9.72412 26.6774 9.80106 26.5703 9.85854 26.4536C 9.90643 26.3563 9.95418 26.2348 10.0018 26.089C 10.0444 25.9287 10.07 25.7419 10.0784 25.5285C 10.0868 25.3151 10.0659 25.0631 10.0156 24.7724C 9.97495 24.4624 9.88795 24.1113 9.75467 23.7194L 8.47351 19.9523C 8.35997 19.6184 8.2827 19.2722 8.24174 18.9136C 8.19583 18.5405 8.20335 18.1816 8.2643 17.837C 8.32031 17.4778 8.43715 17.1547 8.61482 16.8675C 8.80206 16.5609 9.06233 16.3023 9.39563 16.0918C 9.56461 15.9695 9.787 15.8615 10.0628 15.7677L 11.2169 15.3752C 11.3621 15.3259 11.4618 15.381 11.5161 15.5407L 11.9678 16.869C 12.0271 17.0432 11.9841 17.155 11.839 17.2043L 10.8373 17.545Z" fill="#80CBC4"/>
</g>
</g>
</svg>

