<svg xmlns="http://www.w3.org/2000/svg" viewBox="0 0 486.3 479.6"><defs><style>.a{fill:#25264d;}</style></defs><title>contacts-skype</title><path class="a" d="M463.3,274.5a214.72,214.72,0,0,0,2.1-30.2c0-122.7-100-222.2-223.4-222.2A224.23,224.23,0,0,0,206,25,133.34,133.34,0,0,0,21.5,209.4a224.39,224.39,0,0,0-2.8,35c0,122.7,100,222.2,223.3,222.2a234.86,234.86,0,0,0,40.6-3.7A133.47,133.47,0,0,0,463.3,274.5ZM262.9,408.1c-71,3.7-104.2-12-134.6-40.6-34-31.9-20.3-68.2,7.4-70.1s44.3,31.3,59,40.6,70.9,30.2,100.5-3.7c32.3-36.9-21.5-56-60.9-61.7-56.2-8.3-127.3-38.7-121.7-98.7s50.9-90.7,98.6-95c60.9-5.5,100.5,9.2,131.8,36,36.2,30.9,16.6,65.4-6.4,68.2s-48.8-50.8-99.6-51.6c-52.3-.8-87.6,54.4-23.1,70.1s133.7,22.1,158.6,81.1C397.6,341.7,333.9,404.4,262.9,408.1Z" transform="translate(0 -3.4)"/></svg>