<svg xmlns="http://www.w3.org/2000/svg" viewBox="0 0 512.1 402.2"><defs><style>.a{fill:#25264d;}</style></defs><title>contacts-mail</title><path class="a" d="M466.3,457.1a43.93,43.93,0,0,0,30-11.3l-145.1-145c-3.5,2.5-6.9,4.9-10,7.2-10.9,8-19.7,14.2-26.4,18.7s-15.8,9.1-27,13.7-21.7,7-31.4,7h-0.7c-9.7,0-20.2-2.3-31.4-7s-20.2-9.2-27-13.7S181.7,316,170.9,308c-3-2.2-6.4-4.7-10-7.3L15.8,445.8a43.93,43.93,0,0,0,30,11.3H466.3Z" transform="translate(0 -54.9)"/><path class="a" d="M28.9,209.4A150.64,150.64,0,0,1,0,184.6V405.3L127.9,277.4Q89.5,250.7,28.9,209.4Z" transform="translate(0 -54.9)"/><path class="a" d="M483.4,209.4q-58.35,39.45-99.2,68L512,405.3V184.6A157,157,0,0,1,483.4,209.4Z" transform="translate(0 -54.9)"/><path class="a" d="M466.3,54.9H45.7c-14.7,0-26,5-33.9,14.9S0,92,0,106.9c0,12,5.2,25,15.7,39s21.6,25,33.4,33c6.5,4.6,26,18.1,58.6,40.7,17.6,12.2,32.9,22.8,46,32,11.2,7.8,20.9,14.6,28.8,20.2,0.9,0.6,2.4,1.7,4.3,3,2.1,1.5,4.7,3.4,7.9,5.7,6.2,4.5,11.3,8.1,15.4,10.9s9,5.9,14.9,9.3a88.1,88.1,0,0,0,16.4,7.7,45.68,45.68,0,0,0,14.3,2.6h0.6a46.18,46.18,0,0,0,14.3-2.6,88.1,88.1,0,0,0,16.4-7.7c5.8-3.4,10.8-6.5,14.9-9.3s9.2-6.4,15.4-10.9c3.2-2.3,5.8-4.2,7.9-5.7,1.9-1.4,3.4-2.4,4.3-3,6.2-4.3,15.9-11.1,28.9-20.1q35.55-24.75,104.8-72.8a137,137,0,0,0,34.9-35.1c9.3-13.7,14-28.1,14-43.1a43.68,43.68,0,0,0-13.6-32.3C489.4,59.3,478.7,54.9,466.3,54.9Z" transform="translate(0 -54.9)"/></svg>