<?xml version="1.0" standalone="no"?>
<!DOCTYPE svg PUBLIC "-//W3C//DTD SVG 20010904//EN"
 "http://www.w3.org/TR/2001/REC-SVG-20010904/DTD/svg10.dtd">
<svg version="1.0" xmlns="http://www.w3.org/2000/svg"
 width="664.000000pt" height="664.000000pt" viewBox="0 0 664.000000 664.000000"
 preserveAspectRatio="xMidYMid meet">
<metadata>
Created by potrace 1.11, written by Peter Selinger 2001-2013
</metadata>
<g transform="translate(0.000000,664.000000) scale(0.100000,-0.100000)"
fill="#000000" stroke="none">
<path d="M3548 6565 c-2 -2 -28 -6 -58 -10 -30 -3 -82 -13 -114 -21 -33 -9
-68 -16 -78 -17 -10 -1 -18 -5 -18 -9 0 -4 -3 -7 -7 -6 -27 7 -216 -85 -318
-156 -128 -89 -275 -231 -375 -365 -14 -18 -33 -42 -42 -52 -10 -11 -15 -19
-12 -19 3 0 -7 -17 -24 -37 -16 -21 -57 -81 -92 -133 -35 -52 -67 -96 -72 -98
-4 -2 -8 -8 -8 -14 0 -6 -13 -27 -30 -48 -16 -21 -30 -40 -30 -43 0 -4 -29
-48 -65 -99 -35 -51 -70 -102 -77 -112 -35 -52 -160 -195 -198 -226 -23 -19
-48 -40 -54 -45 -12 -12 -88 -59 -96 -61 -3 0 -18 -7 -35 -14 -36 -16 -36 -16
-105 -32 -91 -21 -184 -14 -295 24 -57 20 -159 70 -179 89 -21 20 -37 4 -127
-128 -51 -76 -97 -139 -101 -141 -4 -2 -8 -8 -8 -14 0 -6 -12 -27 -27 -46
l-26 -35 27 -21 c15 -12 65 -57 110 -101 126 -124 179 -248 175 -410 -3 -151
-68 -317 -204 -518 -33 -49 -67 -99 -75 -112 -24 -37 -93 -139 -102 -150 -24
-28 -188 -278 -188 -286 0 -5 -4 -9 -10 -9 -5 0 -10 -5 -10 -12 0 -6 -6 -19
-14 -27 -23 -27 -90 -153 -139 -261 -21 -46 -75 -212 -83 -253 -23 -119 -31
-207 -28 -312 1 -66 3 -120 4 -120 1 0 3 -13 5 -30 13 -98 73 -286 127 -397
68 -141 247 -407 273 -408 8 0 48 28 110 78 6 4 48 37 95 72 47 36 88 69 92
75 4 5 -9 31 -28 58 -108 150 -164 336 -159 521 3 99 9 137 35 236 37 144 124
320 258 520 53 80 102 151 109 158 6 6 15 21 18 32 3 11 10 20 15 20 5 0 12 9
15 20 3 11 12 26 18 32 7 7 48 67 92 133 44 66 86 126 93 133 6 7 12 20 12 28
0 8 4 14 8 14 24 0 160 314 176 405 3 17 10 51 15 78 8 47 7 263 -2 302 -22
92 -35 130 -64 200 -18 44 -33 80 -33 81 0 0 46 1 103 1 106 -1 139 3 252 27
11 2 37 12 58 20 20 9 37 14 37 11 0 -14 205 105 265 155 130 108 299 316 435
536 15 25 84 125 204 299 38 55 73 102 78 103 4 2 8 8 8 14 0 5 6 15 13 23 6
7 30 34 52 61 149 179 336 315 510 370 111 35 124 37 265 37 118 0 176 -5 224
-22 12 -4 27 -7 35 -7 16 1 49 94 77 219 1 4 3 9 4 12 1 3 3 8 4 13 1 4 5 13
9 20 5 6 6 12 4 12 -3 0 1 20 9 45 12 42 12 46 -4 51 -9 3 -28 10 -42 15 -28
9 -184 49 -215 54 -11 2 -38 7 -60 10 -22 4 -51 8 -65 11 -29 5 -328 13 -332
9z"/>
<path d="M5909 5304 c-19 -13 -45 -34 -59 -45 -14 -11 -61 -47 -105 -81 -87
-67 -105 -83 -105 -93 0 -3 11 -18 25 -32 13 -15 29 -40 36 -55 6 -15 16 -28
21 -28 5 0 6 -4 3 -10 -3 -5 -1 -10 4 -10 6 0 10 -3 9 -7 -1 -5 5 -21 14 -38
93 -178 106 -447 32 -665 -9 -25 -17 -53 -19 -62 -6 -27 -107 -233 -117 -236
-4 -2 -8 -8 -8 -14 0 -9 -117 -196 -130 -208 -5 -5 -155 -224 -180 -265 -8
-13 -54 -81 -102 -152 -47 -70 -102 -157 -122 -193 -36 -67 -93 -198 -101
-234 -2 -12 -11 -48 -20 -81 -52 -205 -21 -435 87 -637 26 -49 30 -64 18 -63
-8 0 -20 4 -25 7 -9 5 -244 3 -285 -2 -41 -6 -170 -44 -210 -62 -25 -12 -48
-20 -52 -20 -5 1 -8 -3 -8 -8 0 -6 -6 -10 -13 -10 -17 0 -143 -86 -190 -129
-88 -81 -115 -110 -184 -201 -77 -100 -82 -107 -98 -132 -24 -39 -150 -223
-155 -228 -3 -3 -17 -23 -30 -45 -13 -22 -26 -42 -30 -45 -3 -3 -39 -54 -79
-115 -98 -145 -169 -234 -255 -321 -80 -80 -211 -184 -232 -184 -8 0 -14 -4
-14 -8 0 -18 -175 -89 -264 -108 -123 -27 -282 -23 -402 10 l-52 14 -12 -41
c-6 -22 -13 -47 -15 -56 -3 -9 -11 -41 -20 -71 -9 -30 -18 -66 -21 -78 -3 -13
-11 -43 -19 -65 -8 -23 -15 -47 -15 -54 0 -10 21 -22 42 -23 4 -1 26 -7 49
-15 23 -9 51 -17 63 -20 45 -9 72 -15 93 -20 13 -3 31 -7 41 -9 18 -4 84 -13
157 -22 40 -5 262 -4 300 1 83 11 116 17 190 36 87 22 245 86 303 123 20 13
41 23 46 24 5 0 12 4 15 9 3 5 31 26 61 48 63 45 104 81 169 146 126 126 167
180 432 570 206 305 266 387 334 454 61 60 130 115 144 115 6 0 11 4 11 9 0
11 109 57 175 75 48 12 174 13 224 2 76 -17 233 -84 251 -107 3 -3 14 -9 25
-12 17 -5 31 11 85 93 36 55 68 100 73 100 4 0 7 4 7 9 0 5 25 45 55 90 l55
80 -37 27 c-67 49 -168 158 -204 219 -48 82 -72 166 -74 255 -1 76 14 171 36
225 7 17 13 36 15 42 10 51 229 411 255 421 5 2 9 7 9 12 0 7 193 295 218 325
4 6 23 36 42 68 19 31 38 57 42 57 5 0 8 5 8 10 0 6 18 42 40 81 34 61 71 139
105 224 10 24 8 17 29 90 9 33 21 71 26 85 29 80 42 299 27 440 -12 112 -54
265 -104 377 -12 29 -22 55 -20 57 1 2 -5 12 -14 22 -9 11 -19 26 -22 36 -15
44 -184 294 -233 345 -9 9 -19 6 -45 -13z"/>
</g>
</svg>
