<?xml version="1.0" standalone="no"?>
<!DOCTYPE svg PUBLIC "-//W3C//DTD SVG 20010904//EN"
 "http://www.w3.org/TR/2001/REC-SVG-20010904/DTD/svg10.dtd">
<svg version="1.0" xmlns="http://www.w3.org/2000/svg"
 width="572.000000pt" height="572.000000pt" viewBox="0 0 572.000000 572.000000"
 preserveAspectRatio="xMidYMid meet">
<metadata>
Created by potrace 1.11, written by Peter Selinger 2001-2013
</metadata>
<g transform="translate(0.000000,572.000000) scale(0.100000,-0.100000)"
fill="#000000" stroke="none">
<path d="M1938 5695 c-3 -4 -12 -8 -20 -9 -30 -6 -74 -19 -83 -25 -5 -3 -12
-6 -15 -7 -29 -6 -195 -77 -201 -87 -3 -5 -9 -8 -13 -8 -11 2 -98 -46 -161
-88 -135 -91 -282 -247 -358 -381 -37 -66 -93 -205 -112 -280 -19 -71 -19 -75
-30 -140 -4 -25 -9 -54 -11 -65 -11 -55 -16 -227 -19 -600 -3 -377 -5 -417
-24 -495 -66 -267 -232 -412 -501 -436 -41 -3 -77 -8 -80 -9 -8 -5 -6 -402 2
-410 3 -4 33 -8 65 -11 183 -12 316 -77 407 -197 31 -42 79 -127 70 -127 -4 0
-1 -6 5 -14 6 -7 21 -56 33 -107 19 -86 21 -127 24 -484 3 -396 9 -599 20
-616 3 -5 7 -26 9 -47 21 -190 153 -486 265 -594 10 -9 20 -21 21 -25 4 -7 65
-64 145 -133 77 -68 256 -166 394 -218 123 -45 175 -61 178 -54 1 4 26 78 56
166 l54 158 -37 15 c-210 83 -346 202 -440 383 -41 79 -88 211 -95 270 -3 19
-5 35 -6 35 -3 0 -10 42 -16 95 -3 30 -8 240 -9 466 -4 494 -7 539 -50 692
-26 89 -98 244 -138 296 -26 34 -134 144 -163 167 -12 9 -44 31 -73 50 -52 34
-59 51 -25 58 10 2 21 6 24 10 3 3 30 25 60 48 156 118 246 246 304 429 53
168 57 219 60 754 2 234 6 439 10 455 3 17 8 44 10 60 19 122 39 187 93 305
84 182 218 308 417 396 39 17 70 35 69 40 -11 50 -110 324 -115 319z"/>
<path d="M3754 5668 c-5 -13 -9 -25 -9 -28 -1 -3 -5 -12 -8 -20 -7 -17 -58
-170 -62 -185 -1 -5 -5 -19 -9 -30 -16 -41 -15 -45 12 -51 15 -4 57 -22 94
-40 247 -120 389 -317 453 -629 25 -121 26 -148 29 -600 2 -231 6 -443 10
-470 4 -28 9 -62 10 -75 14 -105 73 -275 118 -342 10 -14 18 -29 18 -32 0 -10
41 -57 115 -132 62 -63 207 -164 235 -164 24 0 6 -20 -37 -41 -61 -29 -167
-110 -221 -168 -115 -122 -204 -311 -228 -482 -3 -24 -8 -57 -10 -74 -2 -16
-6 -230 -9 -475 -2 -245 -6 -458 -9 -475 -3 -16 -8 -52 -12 -80 -10 -76 -51
-213 -84 -281 -17 -34 -30 -66 -30 -72 0 -6 -3 -12 -7 -14 -5 -2 -21 -23 -38
-48 -76 -112 -203 -212 -349 -275 -39 -17 -71 -35 -71 -41 0 -5 24 -79 54
-165 l53 -157 82 25 c44 14 86 29 91 33 6 4 21 11 35 15 36 11 236 111 250
125 3 3 31 23 63 44 31 22 57 43 57 48 0 4 5 8 12 8 9 0 151 140 183 182 145
187 233 438 250 718 2 36 5 239 6 452 2 404 8 483 48 608 44 137 138 249 256
304 75 36 160 60 176 51 5 -4 9 -3 9 2 0 4 15 8 33 8 17 -1 45 2 62 5 l30 6 0
203 c0 128 -4 205 -10 207 -5 1 -37 5 -70 8 -58 5 -73 8 -140 22 -48 10 -143
60 -191 99 -78 64 -149 188 -173 300 -6 28 -14 64 -17 80 -3 17 -8 147 -10
290 -6 437 -13 708 -18 745 -16 127 -62 287 -116 404 -101 222 -305 422 -565
555 -78 40 -292 121 -320 121 -7 0 -17 -10 -21 -22z"/>
</g>
</svg>
