<svg version="1" xmlns="http://www.w3.org/2000/svg" width="933.333" height="933.333" viewBox="0 0 700.000000 700.000000"><path d="M333.9 90.4c-.2.2-4.5.6-9.6 1-5.1.3-9.8.8-10.5 1.1-.7.2-3.1.6-5.3.9-4.5.6-6 .9-16.5 3.2-22 4.7-52.1 16.5-70.9 27.6-11.6 6.8-28.1 18-32.2 21.8-.9.8-4.2 3.5-7.3 6-6.4 5.2-25 23.9-31.8 32-14.2 17-27.6 38.8-38.4 62.5-2.8 6.2-10 25.8-10.9 30-.3 1.1-1.4 5.6-2.5 10-2.2 8.4-3.7 15.7-4.6 21.5-.3 1.9-.7 4.6-1 6-1.9 11-2.6 47.9-1.1 61.5 2.9 27.9 9.3 52.5 20.1 77.8 4.3 9.9 5.7 12.7 12.9 25.7 15 27 41.4 57.3 67.2 77.1 30.6 23.4 65.5 39.6 103.1 47.7 22.1 4.8 30.6 5.7 55.4 5.7 16.7 0 27.1-.6 37-2.1 6.1-.9 24.4-4.5 27.5-5.4 1.7-.5 7.1-2.1 12-3.6 28.6-8.6 57.3-23.4 82-42.3 25.4-19.6 50.6-48.2 66.2-75.4 10.2-17.8 21.2-43.2 24.7-57.2.2-.6.8-3 1.5-5.5s1.5-5.2 1.6-6c.2-.8.9-3.8 1.5-6.5 1.7-7.2 3.9-21.7 4.8-31 1.4-15.4.7-48.4-1.2-59.5-.2-1.4-1-5.9-1.6-10-1.6-10.1-7.2-31.7-10.8-41.5-9.2-25.1-17.1-40.1-33.4-64.3-8.8-13.1-32.9-39-45.3-48.8-2.7-2.1-5.2-4.2-5.5-4.5-1.6-1.9-26.4-18.9-27.6-18.9-.3 0-1.8-.9-3.3-1.9-4-2.9-23.4-12.5-32.6-16.1-20.7-8.3-46-14.9-63-16.6-3.3-.3-6.4-.8-6.8-1.1-1-.6-43.1-1.5-43.8-.9z"/></svg>